<?xml version="1.0" standalone="no"?>
<!DOCTYPE svg PUBLIC "-//W3C//DTD SVG 20010904//EN"
 "http://www.w3.org/TR/2001/REC-SVG-20010904/DTD/svg10.dtd">
<svg version="1.0" xmlns="http://www.w3.org/2000/svg"
 width="300.000000pt" height="195.000000pt" viewBox="0 0 300.000000 195.000000"
 preserveAspectRatio="xMidYMid meet">
<metadata>
Created by potrace 1.15, written by Peter Selinger 2001-2017
</metadata>
<g transform="translate(0.000000,195.000000) scale(0.100000,-0.100000)"
fill="#000000" stroke="none">
<path d="M1466 1845 c-3 -13 -19 -31 -35 -39 -15 -8 -36 -26 -45 -40 -9 -14
-28 -29 -43 -32 -15 -4 -38 -20 -51 -36 -14 -16 -34 -28 -48 -28 -17 0 -24 -6
-24 -20 0 -16 -7 -20 -30 -20 -35 0 -41 -23 -11 -40 33 -17 61 -12 61 10 0 15
7 20 26 20 16 0 36 11 52 30 15 17 30 30 34 30 3 0 23 -27 43 -60 20 -33 38
-60 40 -60 2 0 -9 29 -25 64 l-28 64 21 20 22 21 54 -66 c29 -36 47 -62 40
-58 -8 4 -3 -2 11 -14 14 -11 26 -16 28 -11 2 5 15 5 30 -1 69 -27 157 9 221
90 20 25 37 38 46 34 8 -3 15 0 15 6 0 21 -26 11 -61 -25 -86 -90 -180 -112
-257 -61 -42 27 -102 100 -102 121 0 6 11 -2 23 -19 55 -75 83 -98 128 -104
24 -4 61 -3 82 3 45 10 101 64 119 112 7 19 14 34 18 34 14 -1 39 -28 32 -35
-4 -5 -1 -5 6 -1 21 12 72 -3 65 -20 -3 -8 -11 -14 -19 -14 -8 0 -11 -6 -7
-17 4 -11 3 -14 -5 -9 -8 5 -10 1 -5 -10 4 -11 3 -15 -5 -10 -6 3 -14 1 -18
-5 -4 -8 -3 -9 4 -5 17 10 15 1 -9 -45 -37 -73 -12 -52 35 30 l46 80 35 -15
c19 -7 45 -14 57 -14 13 0 31 -9 41 -20 9 -11 26 -20 37 -20 16 0 20 7 20 30
0 21 -4 28 -14 24 -8 -3 -23 3 -34 14 -11 11 -38 23 -60 27 -22 3 -55 17 -73
31 -18 13 -40 24 -49 24 -9 0 -33 9 -55 20 -49 25 -48 25 -40 -8 15 -68 -103
-173 -177 -157 -99 22 -144 76 -140 168 3 58 -11 78 -22 32z"/>
<path d="M1457 1523 c-4 -3 -7 -12 -7 -20 0 -10 39 -13 195 -13 188 0 195 1
195 20 0 19 -7 20 -188 20 -104 0 -192 -3 -195 -7z"/>
<path d="M1615 1460 c-88 -3 -141 -7 -118 -8 46 -2 47 -5 73 -119 6 -29 19
-58 27 -65 14 -11 15 -9 9 17 -6 30 -6 31 31 29 31 -1 32 0 6 3 -30 4 -32 7
-38 51 -9 69 -14 80 -25 62 -8 -13 -10 -12 -10 3 0 15 10 17 75 17 43 0 75 -4
75 -10 0 -5 -6 -9 -12 -7 -8 1 -14 -10 -15 -28 -2 -29 -2 -29 7 -5 10 26 10
18 -5 -102 -6 -45 3 -33 21 26 5 16 14 28 19 25 6 -2 8 -8 6 -14 -2 -5 -6 -28
-8 -49 -2 -22 -9 -48 -14 -57 -12 -22 -11 -29 1 -29 5 0 17 26 26 58 50 178
56 192 76 192 10 0 16 5 13 10 -3 6 -18 9 -33 8 -15 -1 -99 -5 -187 -8z"/>
<path d="M420 1021 l0 -241 120 0 c119 0 119 0 154 31 59 52 66 141 15 195
-21 22 -21 24 -5 58 9 19 16 44 16 55 0 33 -25 83 -54 111 -25 23 -37 25 -137
28 l-109 4 0 -241z m193 168 c35 -16 51 -55 37 -89 -15 -36 -48 -50 -115 -50
l-55 0 0 75 0 75 55 0 c30 0 65 -5 78 -11z m31 -210 c51 -23 55 -103 7 -128
-11 -6 -54 -11 -95 -11 l-76 0 0 75 0 75 70 0 c38 0 80 -5 94 -11z"/>
<path d="M2240 1026 c0 -226 1 -235 20 -241 11 -3 29 -3 40 0 17 5 20 15 20
70 l0 63 63 4 c128 8 207 74 207 173 0 65 -28 109 -89 142 -38 20 -58 23 -153
23 l-108 0 0 -234z m220 159 c69 -36 81 -106 26 -161 -32 -32 -38 -34 -100
-34 l-66 0 0 105 0 105 55 0 c31 0 69 -7 85 -15z"/>
<path d="M1636 1003 c4 -87 10 -194 14 -238 l7 -80 3 115 c1 63 3 120 5 125 1
6 3 31 3 58 1 26 6 47 11 47 6 0 8 -30 5 -72 -8 -129 -9 -258 -1 -258 4 0 7
25 7 56 0 30 7 132 16 225 9 94 13 173 10 176 -3 3 -13 0 -22 -8 -13 -11 -18
-11 -21 -1 -3 6 -13 12 -24 12 -18 0 -18 -7 -13 -157z"/>
<path d="M1872 958 l3 -173 30 0 30 0 5 105 c3 58 10 115 17 126 12 20 69 54
92 54 6 0 11 14 11 30 0 36 -16 38 -77 10 -43 -19 -43 -19 -43 0 0 16 -7 20
-35 20 l-35 0 2 -172z"/>
<path d="M2115 1118 c-3 -8 -4 -86 -3 -173 l3 -160 30 0 30 0 0 170 0 170 -28
3 c-16 2 -29 -2 -32 -10z"/>
<path d="M879 1097 c-100 -67 -104 -220 -8 -288 47 -33 126 -38 176 -9 22 12
45 31 52 42 13 20 12 21 -41 13 -102 -14 -135 -11 -162 14 -15 14 -26 28 -26
32 0 5 60 10 133 11 l132 3 -2 48 c-3 91 -75 157 -170 157 -36 0 -60 -7 -84
-23z"/>
<path d="M1219 1091 c-54 -55 -27 -130 54 -152 75 -20 87 -27 87 -52 0 -28
-29 -57 -56 -57 -11 0 -37 9 -57 19 -36 18 -38 18 -47 1 -14 -27 -13 -28 23
-50 20 -13 50 -20 80 -20 40 0 54 5 77 29 36 36 46 73 29 112 -14 36 -62 69
-100 69 -14 0 -34 6 -45 14 -15 12 -17 18 -8 33 15 25 50 28 80 8 14 -9 27
-15 29 -13 1 2 7 13 14 25 9 19 7 25 -15 42 -41 33 -108 29 -145 -8z"/>
</g>
</svg>
